<svg width="436" height="436" viewBox="0 0 436 436" fill="none" xmlns="http://www.w3.org/2000/svg">
<path d="M404.857 0H31.0455C13.917 0 0 14.1116 0 31.4348V404.565C0 421.888 13.917 436 31.0455 436H404.857C421.986 436 436 421.888 436 404.565V31.4348C436 14.1116 421.986 0 404.857 0ZM131.773 373.714V373.714C96.0838 373.714 67.1518 344.782 67.1518 309.093V198C67.1518 180.129 81.6396 165.641 99.5112 165.641V165.641C117.383 165.641 131.871 180.129 131.871 198V373.617C131.871 373.671 131.827 373.714 131.773 373.714V373.714ZM99.4625 137.223C78.733 137.223 61.9938 120.387 61.9938 99.7545C61.9938 79.1223 78.733 62.2857 99.4625 62.2857C120.095 62.2857 136.931 79.1223 136.931 99.7545C136.931 120.484 120.192 137.223 99.4625 137.223ZM374.006 341.404C374.006 359.248 359.54 373.714 341.696 373.714V373.714C323.851 373.714 309.385 359.248 309.385 341.404V272.5C309.385 248.364 308.898 217.319 275.809 217.319C242.136 217.319 236.978 243.596 236.978 270.748V341.404C236.978 359.248 222.512 373.714 204.667 373.714V373.714C186.822 373.714 172.356 359.248 172.356 341.404V196.638C172.356 179.519 186.234 165.641 203.353 165.641H220.141C227.988 165.641 234.35 172.003 234.35 179.85V193.512C234.35 193.814 234.595 194.059 234.897 194.059V194.059C235.099 194.059 235.284 193.949 235.38 193.771C244.136 177.507 265.191 160.483 296.441 160.483C361.841 160.483 374.006 203.596 374.006 259.654V341.404Z" fill="#0B1523"/>
</svg>
